<svg width="150" height="56" viewBox="0 0 150 56" fill="none" xmlns="http://www.w3.org/2000/svg">
<mask id="path-2-outside-1_92_211" maskUnits="userSpaceOnUse" x="42.4929" y="9.60498" width="94" height="36" fill="black">
<rect fill="white" x="42.4929" y="9.60498" width="94" height="36"/>
<path d="M71.0429 37.405C70.9829 42.685 66.2429 44.395 60.3629 44.395H58.9229C53.0429 44.395 48.3029 42.685 48.2429 37.405C48.3029 32.065 53.0429 30.355 58.9229 30.355H60.3629C66.2429 30.355 70.9829 32.065 71.0429 37.405ZM44.4929 17.785C44.4929 15.415 45.1829 12.985 48.8129 12.475C50.0729 12.295 51.7529 12.205 53.1629 12.205C54.7529 12.205 56.1029 12.265 57.4229 12.415C60.7829 12.805 62.6729 13.915 62.6729 18.115V20.305C62.6729 21.655 61.8629 23.095 60.3929 23.845H61.8929C62.8229 23.845 63.4229 24.685 63.4229 26.305C63.4229 27.925 62.6729 28.735 61.8929 28.735H47.5529C45.5729 28.735 44.4929 27.235 44.4929 25.285V17.785ZM64.8629 13.705C64.8629 12.385 66.2129 11.605 67.8329 11.605C69.4529 11.605 70.8329 12.235 70.8329 13.705V17.785H72.7829C74.2529 17.785 74.5229 19.105 74.5229 20.725C74.5229 22.345 74.1029 23.665 72.7829 23.665H70.8329V27.895C70.8329 29.365 69.4529 29.995 67.8329 29.995C66.2129 29.995 64.8629 29.215 64.8629 27.895V13.705ZM54.3629 37.375C54.3629 38.725 55.8929 39.385 59.6429 39.385C63.3929 39.385 64.9229 38.725 64.9229 37.375C64.9229 36.025 63.3929 35.365 59.6429 35.365C55.8929 35.365 54.3629 36.025 54.3629 37.375ZM55.8329 23.845C56.5529 23.155 56.7329 21.565 56.7329 20.575V19.195C56.7329 17.815 56.1029 17.245 54.8429 17.245H52.2029C51.2129 17.245 50.4629 17.635 50.4629 18.745V23.845H55.8329Z"/>
<path d="M96.3271 30.175C99.4771 30.175 100.497 31.285 100.497 33.085C100.497 33.985 99.9871 34.855 99.5971 35.125C99.8971 35.125 100.677 35.395 100.677 36.745C100.677 37.915 100.107 38.515 99.2371 38.515H84.9871C84.5071 38.515 84.2371 38.695 84.2371 39.055C84.2371 39.415 84.5071 39.565 84.9871 39.565H99.7471C100.677 39.565 101.277 40.135 101.277 41.665C101.277 43.195 100.527 43.735 99.7471 43.735H83.4871C78.4171 43.735 77.5771 42.265 77.5771 40.495C77.5771 39.655 77.9671 38.905 78.6571 38.515C78.0571 38.515 77.4271 38.005 77.4271 36.925C77.4271 35.755 77.9071 35.125 79.0171 35.125H93.4771C93.9571 35.125 94.2871 34.915 94.2871 34.555C94.2871 34.195 94.0771 34.015 93.5071 34.015H79.2571C78.0271 34.015 77.3971 33.265 77.3971 32.155C77.3971 31.075 77.8471 30.175 79.0771 30.175H96.3271ZM77.3671 29.155C76.2271 29.155 75.4771 28.555 75.4771 26.935C75.4771 25.315 76.0771 24.655 77.3671 24.655H85.9171V24.115C85.9171 22.975 87.0571 22.315 89.0371 22.315C91.0171 22.315 92.1871 22.825 92.1871 24.115V24.655H100.737C102.027 24.655 102.627 25.315 102.627 26.935C102.627 28.555 101.877 29.155 100.737 29.155H77.3671ZM83.2171 18.625C84.6271 18.265 85.6771 18.025 85.9471 17.515C83.9371 17.515 81.5971 17.575 80.3971 17.605C79.1671 17.665 78.2371 17.005 78.2371 15.085C78.2371 13.465 78.9571 12.835 80.0971 12.655C81.6271 12.415 84.8971 12.295 88.2871 12.295C91.9771 12.295 95.8171 12.445 97.5271 12.685C98.4571 12.805 99.3271 13.375 99.2971 15.175C99.2671 16.975 98.5171 17.695 97.3771 17.635C96.2671 17.575 94.1371 17.545 92.2171 17.515C92.1871 17.665 92.1271 17.815 92.0671 17.965C92.8471 18.115 93.6871 18.295 94.3171 18.355C95.6371 18.535 97.4671 18.715 98.4871 18.835C99.4771 18.955 100.317 19.585 100.107 21.235C99.9271 22.675 99.2671 23.395 98.0371 23.395H97.9471C95.3971 23.335 91.5271 22.375 89.3371 21.115C88.6471 21.595 87.7771 22.045 86.7571 22.435C84.6871 23.245 82.3471 23.725 80.0371 23.725C78.8071 23.725 77.9971 23.125 77.8471 21.655C77.6971 20.125 78.2671 19.225 79.5871 19.075C80.3371 18.985 82.4671 18.805 83.2171 18.625Z"/>
<path d="M131.629 37.405C131.569 42.685 126.829 44.395 120.949 44.395H119.509C113.629 44.395 108.889 42.685 108.829 37.405C108.889 32.065 113.629 30.355 119.509 30.355H120.949C126.829 30.355 131.569 32.065 131.629 37.405ZM105.079 17.785C105.079 15.415 105.769 12.985 109.399 12.475C110.659 12.295 112.339 12.205 113.749 12.205C115.339 12.205 116.689 12.265 118.009 12.415C121.369 12.805 123.259 13.915 123.259 18.115V20.305C123.259 21.655 122.449 23.095 120.979 23.845H122.479C123.409 23.845 124.009 24.685 124.009 26.305C124.009 27.925 123.259 28.735 122.479 28.735H108.139C106.159 28.735 105.079 27.235 105.079 25.285V17.785ZM125.449 13.705C125.449 12.385 126.799 11.605 128.419 11.605C130.039 11.605 131.419 12.235 131.419 13.705V17.785H133.369C134.839 17.785 135.109 19.105 135.109 20.725C135.109 22.345 134.689 23.665 133.369 23.665H131.419V27.895C131.419 29.365 130.039 29.995 128.419 29.995C126.799 29.995 125.449 29.215 125.449 27.895V13.705ZM114.949 37.375C114.949 38.725 116.479 39.385 120.229 39.385C123.979 39.385 125.509 38.725 125.509 37.375C125.509 36.025 123.979 35.365 120.229 35.365C116.479 35.365 114.949 36.025 114.949 37.375ZM116.419 23.845C117.139 23.155 117.319 21.565 117.319 20.575V19.195C117.319 17.815 116.689 17.245 115.429 17.245H112.789C111.799 17.245 111.049 17.635 111.049 18.745V23.845H116.419Z"/>
</mask>
<path d="M71.0429 37.405C70.9829 42.685 66.2429 44.395 60.3629 44.395H58.9229C53.0429 44.395 48.3029 42.685 48.2429 37.405C48.3029 32.065 53.0429 30.355 58.9229 30.355H60.3629C66.2429 30.355 70.9829 32.065 71.0429 37.405ZM44.4929 17.785C44.4929 15.415 45.1829 12.985 48.8129 12.475C50.0729 12.295 51.7529 12.205 53.1629 12.205C54.7529 12.205 56.1029 12.265 57.4229 12.415C60.7829 12.805 62.6729 13.915 62.6729 18.115V20.305C62.6729 21.655 61.8629 23.095 60.3929 23.845H61.8929C62.8229 23.845 63.4229 24.685 63.4229 26.305C63.4229 27.925 62.6729 28.735 61.8929 28.735H47.5529C45.5729 28.735 44.4929 27.235 44.4929 25.285V17.785ZM64.8629 13.705C64.8629 12.385 66.2129 11.605 67.8329 11.605C69.4529 11.605 70.8329 12.235 70.8329 13.705V17.785H72.7829C74.2529 17.785 74.5229 19.105 74.5229 20.725C74.5229 22.345 74.1029 23.665 72.7829 23.665H70.8329V27.895C70.8329 29.365 69.4529 29.995 67.8329 29.995C66.2129 29.995 64.8629 29.215 64.8629 27.895V13.705ZM54.3629 37.375C54.3629 38.725 55.8929 39.385 59.6429 39.385C63.3929 39.385 64.9229 38.725 64.9229 37.375C64.9229 36.025 63.3929 35.365 59.6429 35.365C55.8929 35.365 54.3629 36.025 54.3629 37.375ZM55.8329 23.845C56.5529 23.155 56.7329 21.565 56.7329 20.575V19.195C56.7329 17.815 56.1029 17.245 54.8429 17.245H52.2029C51.2129 17.245 50.4629 17.635 50.4629 18.745V23.845H55.8329Z" fill="#F3F5F9"/>
<path d="M96.3271 30.175C99.4771 30.175 100.497 31.285 100.497 33.085C100.497 33.985 99.9871 34.855 99.5971 35.125C99.8971 35.125 100.677 35.395 100.677 36.745C100.677 37.915 100.107 38.515 99.2371 38.515H84.9871C84.5071 38.515 84.2371 38.695 84.2371 39.055C84.2371 39.415 84.5071 39.565 84.9871 39.565H99.7471C100.677 39.565 101.277 40.135 101.277 41.665C101.277 43.195 100.527 43.735 99.7471 43.735H83.4871C78.4171 43.735 77.5771 42.265 77.5771 40.495C77.5771 39.655 77.9671 38.905 78.6571 38.515C78.0571 38.515 77.4271 38.005 77.4271 36.925C77.4271 35.755 77.9071 35.125 79.0171 35.125H93.4771C93.9571 35.125 94.2871 34.915 94.2871 34.555C94.2871 34.195 94.0771 34.015 93.5071 34.015H79.2571C78.0271 34.015 77.3971 33.265 77.3971 32.155C77.3971 31.075 77.8471 30.175 79.0771 30.175H96.3271ZM77.3671 29.155C76.2271 29.155 75.4771 28.555 75.4771 26.935C75.4771 25.315 76.0771 24.655 77.3671 24.655H85.9171V24.115C85.9171 22.975 87.0571 22.315 89.0371 22.315C91.0171 22.315 92.1871 22.825 92.1871 24.115V24.655H100.737C102.027 24.655 102.627 25.315 102.627 26.935C102.627 28.555 101.877 29.155 100.737 29.155H77.3671ZM83.2171 18.625C84.6271 18.265 85.6771 18.025 85.9471 17.515C83.9371 17.515 81.5971 17.575 80.3971 17.605C79.1671 17.665 78.2371 17.005 78.2371 15.085C78.2371 13.465 78.9571 12.835 80.0971 12.655C81.6271 12.415 84.8971 12.295 88.2871 12.295C91.9771 12.295 95.8171 12.445 97.5271 12.685C98.4571 12.805 99.3271 13.375 99.2971 15.175C99.2671 16.975 98.5171 17.695 97.3771 17.635C96.2671 17.575 94.1371 17.545 92.2171 17.515C92.1871 17.665 92.1271 17.815 92.0671 17.965C92.8471 18.115 93.6871 18.295 94.3171 18.355C95.6371 18.535 97.4671 18.715 98.4871 18.835C99.4771 18.955 100.317 19.585 100.107 21.235C99.9271 22.675 99.2671 23.395 98.0371 23.395H97.9471C95.3971 23.335 91.5271 22.375 89.3371 21.115C88.6471 21.595 87.7771 22.045 86.7571 22.435C84.6871 23.245 82.3471 23.725 80.0371 23.725C78.8071 23.725 77.9971 23.125 77.8471 21.655C77.6971 20.125 78.2671 19.225 79.5871 19.075C80.3371 18.985 82.4671 18.805 83.2171 18.625Z" fill="#F3F5F9"/>
<path d="M131.629 37.405C131.569 42.685 126.829 44.395 120.949 44.395H119.509C113.629 44.395 108.889 42.685 108.829 37.405C108.889 32.065 113.629 30.355 119.509 30.355H120.949C126.829 30.355 131.569 32.065 131.629 37.405ZM105.079 17.785C105.079 15.415 105.769 12.985 109.399 12.475C110.659 12.295 112.339 12.205 113.749 12.205C115.339 12.205 116.689 12.265 118.009 12.415C121.369 12.805 123.259 13.915 123.259 18.115V20.305C123.259 21.655 122.449 23.095 120.979 23.845H122.479C123.409 23.845 124.009 24.685 124.009 26.305C124.009 27.925 123.259 28.735 122.479 28.735H108.139C106.159 28.735 105.079 27.235 105.079 25.285V17.785ZM125.449 13.705C125.449 12.385 126.799 11.605 128.419 11.605C130.039 11.605 131.419 12.235 131.419 13.705V17.785H133.369C134.839 17.785 135.109 19.105 135.109 20.725C135.109 22.345 134.689 23.665 133.369 23.665H131.419V27.895C131.419 29.365 130.039 29.995 128.419 29.995C126.799 29.995 125.449 29.215 125.449 27.895V13.705ZM114.949 37.375C114.949 38.725 116.479 39.385 120.229 39.385C123.979 39.385 125.509 38.725 125.509 37.375C125.509 36.025 123.979 35.365 120.229 35.365C116.479 35.365 114.949 36.025 114.949 37.375ZM116.419 23.845C117.139 23.155 117.319 21.565 117.319 20.575V19.195C117.319 17.815 116.689 17.245 115.429 17.245H112.789C111.799 17.245 111.049 17.635 111.049 18.745V23.845H116.419Z" fill="#F3F5F9"/>
<path d="M71.0429 37.405C70.9829 42.685 66.2429 44.395 60.3629 44.395H58.9229C53.0429 44.395 48.3029 42.685 48.2429 37.405C48.3029 32.065 53.0429 30.355 58.9229 30.355H60.3629C66.2429 30.355 70.9829 32.065 71.0429 37.405ZM44.4929 17.785C44.4929 15.415 45.1829 12.985 48.8129 12.475C50.0729 12.295 51.7529 12.205 53.1629 12.205C54.7529 12.205 56.1029 12.265 57.4229 12.415C60.7829 12.805 62.6729 13.915 62.6729 18.115V20.305C62.6729 21.655 61.8629 23.095 60.3929 23.845H61.8929C62.8229 23.845 63.4229 24.685 63.4229 26.305C63.4229 27.925 62.6729 28.735 61.8929 28.735H47.5529C45.5729 28.735 44.4929 27.235 44.4929 25.285V17.785ZM64.8629 13.705C64.8629 12.385 66.2129 11.605 67.8329 11.605C69.4529 11.605 70.8329 12.235 70.8329 13.705V17.785H72.7829C74.2529 17.785 74.5229 19.105 74.5229 20.725C74.5229 22.345 74.1029 23.665 72.7829 23.665H70.8329V27.895C70.8329 29.365 69.4529 29.995 67.8329 29.995C66.2129 29.995 64.8629 29.215 64.8629 27.895V13.705ZM54.3629 37.375C54.3629 38.725 55.8929 39.385 59.6429 39.385C63.3929 39.385 64.9229 38.725 64.9229 37.375C64.9229 36.025 63.3929 35.365 59.6429 35.365C55.8929 35.365 54.3629 36.025 54.3629 37.375ZM55.8329 23.845C56.5529 23.155 56.7329 21.565 56.7329 20.575V19.195C56.7329 17.815 56.1029 17.245 54.8429 17.245H52.2029C51.2129 17.245 50.4629 17.635 50.4629 18.745V23.845H55.8329Z" stroke="#47539C" stroke-width="2.4" mask="url(#path-2-outside-1_92_211)"/>
<path d="M96.3271 30.175C99.4771 30.175 100.497 31.285 100.497 33.085C100.497 33.985 99.9871 34.855 99.5971 35.125C99.8971 35.125 100.677 35.395 100.677 36.745C100.677 37.915 100.107 38.515 99.2371 38.515H84.9871C84.5071 38.515 84.2371 38.695 84.2371 39.055C84.2371 39.415 84.5071 39.565 84.9871 39.565H99.7471C100.677 39.565 101.277 40.135 101.277 41.665C101.277 43.195 100.527 43.735 99.7471 43.735H83.4871C78.4171 43.735 77.5771 42.265 77.5771 40.495C77.5771 39.655 77.9671 38.905 78.6571 38.515C78.0571 38.515 77.4271 38.005 77.4271 36.925C77.4271 35.755 77.9071 35.125 79.0171 35.125H93.4771C93.9571 35.125 94.2871 34.915 94.2871 34.555C94.2871 34.195 94.0771 34.015 93.5071 34.015H79.2571C78.0271 34.015 77.3971 33.265 77.3971 32.155C77.3971 31.075 77.8471 30.175 79.0771 30.175H96.3271ZM77.3671 29.155C76.2271 29.155 75.4771 28.555 75.4771 26.935C75.4771 25.315 76.0771 24.655 77.3671 24.655H85.9171V24.115C85.9171 22.975 87.0571 22.315 89.0371 22.315C91.0171 22.315 92.1871 22.825 92.1871 24.115V24.655H100.737C102.027 24.655 102.627 25.315 102.627 26.935C102.627 28.555 101.877 29.155 100.737 29.155H77.3671ZM83.2171 18.625C84.6271 18.265 85.6771 18.025 85.9471 17.515C83.9371 17.515 81.5971 17.575 80.3971 17.605C79.1671 17.665 78.2371 17.005 78.2371 15.085C78.2371 13.465 78.9571 12.835 80.0971 12.655C81.6271 12.415 84.8971 12.295 88.2871 12.295C91.9771 12.295 95.8171 12.445 97.5271 12.685C98.4571 12.805 99.3271 13.375 99.2971 15.175C99.2671 16.975 98.5171 17.695 97.3771 17.635C96.2671 17.575 94.1371 17.545 92.2171 17.515C92.1871 17.665 92.1271 17.815 92.0671 17.965C92.8471 18.115 93.6871 18.295 94.3171 18.355C95.6371 18.535 97.4671 18.715 98.4871 18.835C99.4771 18.955 100.317 19.585 100.107 21.235C99.9271 22.675 99.2671 23.395 98.0371 23.395H97.9471C95.3971 23.335 91.5271 22.375 89.3371 21.115C88.6471 21.595 87.7771 22.045 86.7571 22.435C84.6871 23.245 82.3471 23.725 80.0371 23.725C78.8071 23.725 77.9971 23.125 77.8471 21.655C77.6971 20.125 78.2671 19.225 79.5871 19.075C80.3371 18.985 82.4671 18.805 83.2171 18.625Z" stroke="#47539C" stroke-width="2.4" mask="url(#path-2-outside-1_92_211)"/>
<path d="M131.629 37.405C131.569 42.685 126.829 44.395 120.949 44.395H119.509C113.629 44.395 108.889 42.685 108.829 37.405C108.889 32.065 113.629 30.355 119.509 30.355H120.949C126.829 30.355 131.569 32.065 131.629 37.405ZM105.079 17.785C105.079 15.415 105.769 12.985 109.399 12.475C110.659 12.295 112.339 12.205 113.749 12.205C115.339 12.205 116.689 12.265 118.009 12.415C121.369 12.805 123.259 13.915 123.259 18.115V20.305C123.259 21.655 122.449 23.095 120.979 23.845H122.479C123.409 23.845 124.009 24.685 124.009 26.305C124.009 27.925 123.259 28.735 122.479 28.735H108.139C106.159 28.735 105.079 27.235 105.079 25.285V17.785ZM125.449 13.705C125.449 12.385 126.799 11.605 128.419 11.605C130.039 11.605 131.419 12.235 131.419 13.705V17.785H133.369C134.839 17.785 135.109 19.105 135.109 20.725C135.109 22.345 134.689 23.665 133.369 23.665H131.419V27.895C131.419 29.365 130.039 29.995 128.419 29.995C126.799 29.995 125.449 29.215 125.449 27.895V13.705ZM114.949 37.375C114.949 38.725 116.479 39.385 120.229 39.385C123.979 39.385 125.509 38.725 125.509 37.375C125.509 36.025 123.979 35.365 120.229 35.365C116.479 35.365 114.949 36.025 114.949 37.375ZM116.419 23.845C117.139 23.155 117.319 21.565 117.319 20.575V19.195C117.319 17.815 116.689 17.245 115.429 17.245H112.789C111.799 17.245 111.049 17.635 111.049 18.745V23.845H116.419Z" stroke="#47539C" stroke-width="2.4" mask="url(#path-2-outside-1_92_211)"/>
<path d="M28.2494 14.9741C26.1064 12.033 23.0544 11.338 20.4506 11.9698C17.7018 12.6368 15.3161 14.8436 15.2812 17.4809L15.2811 17.4889L15.2812 17.4968C15.3159 20.0893 17.2736 21.8795 19.7228 23.065C20.4813 23.4322 21.3044 23.7508 22.1634 24.025H16.7811C16.0312 24.025 15.3558 24.2289 14.8907 24.7893C14.447 25.3239 14.2911 26.0719 14.2911 26.935C14.2911 27.8267 14.4966 28.5605 14.9663 29.0729C15.4448 29.5949 16.1026 29.785 16.7811 29.785H17.4641C17.1606 29.9256 16.9064 30.1343 16.7075 30.4032C16.3359 30.9056 16.2111 31.5457 16.2111 32.155C16.2111 32.8204 16.4012 33.4494 16.8457 33.9154C17.1579 34.2426 17.5608 34.453 18.0258 34.5508C17.5246 34.6176 17.0861 34.818 16.7631 35.1972C16.3722 35.6561 16.2411 36.2738 16.2411 36.925C16.2411 37.5828 16.4348 38.1308 16.782 38.5228C16.8401 38.5884 16.9017 38.6487 16.9663 38.7036C16.5876 39.2078 16.3911 39.8398 16.3911 40.495C16.3911 41.4848 16.6344 42.5262 17.7015 43.2708C18.703 43.9696 20.3388 44.335 22.9011 44.335H39.1611C39.6935 44.335 40.2527 44.1467 40.6705 43.6685C41.0811 43.1985 41.2911 42.5218 41.2911 41.665C41.2911 40.8385 41.132 40.1535 40.7439 39.6671C40.3946 39.2292 39.9223 39.0276 39.4221 38.9777C39.6995 38.8705 39.9496 38.6989 40.155 38.4568C40.5271 38.018 40.6911 37.4199 40.6911 36.745C40.6911 35.9504 40.4582 35.3807 40.0913 35.0079C40.0556 34.9716 40.0191 34.9378 39.9822 34.9062C40.0418 34.8083 40.0971 34.7064 40.1473 34.6029C40.3544 34.1754 40.5111 33.6435 40.5111 33.085C40.5111 32.0668 40.2164 31.1325 39.3748 30.4806C38.9639 30.1624 38.4492 29.9332 37.828 29.785H40.1511C40.8296 29.785 41.4874 29.5949 41.9659 29.0729C42.4356 28.5605 42.6411 27.8267 42.6411 26.935C42.6411 26.0719 42.4853 25.3239 42.0416 24.7893C41.5765 24.2289 40.901 24.025 40.1511 24.025H34.0099C34.9437 23.7366 35.8466 23.4009 36.6779 23.0107C39.1463 21.8521 41.1962 20.1038 41.2311 17.4968L41.2312 17.4889L41.2311 17.4809C41.1961 14.8346 38.7389 12.6336 35.972 11.9695C33.3514 11.3405 30.2952 12.0278 28.2494 14.9741Z" fill="#F3F5F9" stroke="#47539C" stroke-width="1.2"/>
</svg>
